<?xml version="1.0" standalone="no"?>
<!DOCTYPE svg PUBLIC "-//W3C//DTD SVG 20010904//EN"
 "http://www.w3.org/TR/2001/REC-SVG-20010904/DTD/svg10.dtd">
<svg version="1.0" xmlns="http://www.w3.org/2000/svg"
 width="700.000000pt" height="700.000000pt" viewBox="0 0 700.000000 700.000000"
 preserveAspectRatio="xMidYMid meet">
<metadata>
Created by potrace 1.11, written by Peter Selinger 2001-2013
</metadata>
<g transform="translate(0.000000,700.000000) scale(0.100000,-0.100000)"
fill="#000000" stroke="none">
<path d="M0 3500 l0 -3500 3500 0 3500 0 0 3500 0 3500 -3500 0 -3500 0 0
-3500z m4593 2619 c600 -347 1094 -633 1096 -635 2 -2 -175 -4 -395 -4 l-399
0 -694 400 c-381 220 -696 400 -701 400 -4 0 -320 -180 -701 -400 l-694 -400
-400 0 c-247 0 -394 4 -385 10 27 16 2175 1259 2178 1259 1 1 494 -283 1095
-630z m-581 -736 c282 -163 557 -321 610 -352 l98 -56 -398 -3 -399 -2 -207
120 c-114 66 -211 120 -216 120 -5 0 -102 -54 -216 -120 l-207 -120 -399 2
-398 3 607 352 c335 193 609 352 610 352 1 1 233 -132 515 -296z m-1917 -838
c766 -443 1399 -805 1405 -805 11 0 980 557 2517 1447 156 89 285 163 288 163
3 0 5 -782 5 -1738 l0 -1738 -1405 -811 -1405 -812 -358 207 c-197 114 -829
479 -1405 812 l-1047 605 0 1737 c0 956 2 1738 5 1738 3 0 633 -362 1400 -805z"/>
<path d="M1090 3382 c0 -1193 1 -1280 17 -1286 9 -4 548 -314 1197 -689 649
-375 1188 -681 1196 -681 9 0 555 310 1213 689 l1196 690 1 1279 0 1278 -22
-14 c-13 -8 -555 -322 -1205 -697 l-1183 -683 -1172 677 c-645 373 -1188 686
-1205 697 l-33 20 0 -1280z"/>
</g>
</svg>
